<svg width="24" height="24" viewBox="0 0 24 24" fill="none" xmlns="http://www.w3.org/2000/svg">
<path fill-rule="evenodd" clip-rule="evenodd" d="M13.2375 11.5126C12.554 10.8291 11.446 10.8291 10.7626 11.5126L10.2323 10.9822L10.7626 11.5126C10.0792 12.196 10.0792 13.304 10.7626 13.9874L10.2323 14.5178L10.7626 13.9874C11.446 14.6709 12.554 14.6709 13.2375 13.9874C13.9209 13.304 13.9209 12.196 13.2375 11.5126ZM14.2977 10.4515C13.0284 9.1827 10.971 9.18285 9.70193 10.4519C8.43273 11.7211 8.43273 13.7789 9.70193 15.0481C10.9711 16.3173 13.0289 16.3173 14.2981 15.0481C15.5673 13.7789 15.5673 11.7211 14.2981 10.4519C14.298 10.4518 14.2978 10.4516 14.2977 10.4515Z" fill="#D4AF7B"/>
<path fill-rule="evenodd" clip-rule="evenodd" d="M18.7235 5.51256C18.0401 4.82915 16.932 4.82915 16.2486 5.51256L15.7183 4.98223L16.2486 5.51256C15.5652 6.19598 15.5652 7.30402 16.2486 7.98743L15.7183 8.51776L16.2486 7.98743C16.932 8.67085 18.0401 8.67085 18.7235 7.98743C19.4069 7.30402 19.4069 6.19598 18.7235 5.51256ZM19.7837 4.45146C18.5144 3.1827 16.457 3.18285 15.1879 4.4519C13.9187 5.72111 13.9187 7.77889 15.1879 9.04809C16.4571 10.3173 18.5149 10.3173 19.7841 9.04809C21.0533 7.77889 21.0533 5.72111 19.7841 4.4519C19.784 4.45175 19.7838 4.45161 19.7837 4.45146Z" fill="#D4AF7B"/>
<path fill-rule="evenodd" clip-rule="evenodd" d="M17.25 12.25C17.25 11.8358 17.5858 11.5 18 11.5C19.6942 11.5 21.3286 12.0854 22.4685 12.9973C22.792 13.2561 22.8444 13.7281 22.5857 14.0515C22.3269 14.375 21.8549 14.4274 21.5315 14.1687C20.6714 13.4806 19.3718 13 18 13C17.5858 13 17.25 12.6642 17.25 12.25Z" fill="#D4AF7B"/>
<path fill-rule="evenodd" clip-rule="evenodd" d="M7.75144 5.51256C7.06802 4.82915 5.95999 4.82915 5.27657 5.51256L4.74624 4.98223L5.27657 5.51256C4.59315 6.19598 4.59315 7.30402 5.27657 7.98743L4.74624 8.51776L5.27657 7.98743C5.95999 8.67085 7.06802 8.67085 7.75144 7.98743C8.43486 7.30402 8.43486 6.19598 7.75144 5.51256ZM8.81165 4.45146C7.54242 3.1827 5.48497 3.18285 4.21591 4.4519C2.94671 5.72111 2.94671 7.77889 4.21591 9.04809C5.48511 10.3173 7.5429 10.3173 8.8121 9.04809C10.0813 7.77889 10.0813 5.72111 8.8121 4.4519C8.81195 4.45175 8.8118 4.45161 8.81165 4.45146Z" fill="#D4AF7B"/>
<path fill-rule="evenodd" clip-rule="evenodd" d="M6 13C4.62824 13 3.32863 13.4806 2.46852 14.1687C2.14507 14.4274 1.6731 14.375 1.41435 14.0515C1.15559 13.7281 1.20803 13.2561 1.53148 12.9973C2.67137 12.0854 4.30575 11.5 6 11.5C6.41421 11.5 6.75 11.8358 6.75 12.25C6.75 12.6642 6.41421 13 6 13Z" fill="#D4AF7B"/>
<path fill-rule="evenodd" clip-rule="evenodd" d="M6.95017 19.1567C8.25141 18.1504 10.0882 17.5 12 17.5C13.9118 17.5 15.7486 18.1504 17.0498 19.1567C17.3775 19.4101 17.4377 19.8812 17.1843 20.2088C16.9309 20.5365 16.4598 20.5967 16.1322 20.3433C15.1034 19.5476 13.5922 19 12 19C10.4078 19 8.8966 19.5476 7.86783 20.3433C7.54018 20.5967 7.06913 20.5365 6.81573 20.2088C6.56232 19.8812 6.62251 19.4101 6.95017 19.1567Z" fill="#D4AF7B"/>
</svg>
