<svg width="20" height="20" viewBox="0 0 20 20" fill="none" xmlns="http://www.w3.org/2000/svg">
<path fill-rule="evenodd" clip-rule="evenodd" d="M3 1.75C2.30921 1.75 1.75 2.30921 1.75 3V8C1.75 8.69079 2.30921 9.25 3 9.25H5.75C6.44079 9.25 7 8.69079 7 8V3C7 2.30921 6.44079 1.75 5.75 1.75H3ZM0.25 3C0.25 1.48079 1.48079 0.25 3 0.25H5.75C7.26921 0.25 8.5 1.48079 8.5 3V8C8.5 9.51921 7.26921 10.75 5.75 10.75H3C1.48079 10.75 0.25 9.51921 0.25 8V3Z" fill="#C7C9D9"/>
<path fill-rule="evenodd" clip-rule="evenodd" d="M3 15.25C2.30921 15.25 1.75 15.8092 1.75 16.5V17C1.75 17.6908 2.30921 18.25 3 18.25H5.75C6.44079 18.25 7 17.6908 7 17V16.5C7 15.8092 6.44079 15.25 5.75 15.25H3ZM0.25 16.5C0.25 14.9808 1.48079 13.75 3 13.75H5.75C7.26921 13.75 8.5 14.9808 8.5 16.5V17C8.5 18.5192 7.26921 19.75 5.75 19.75H3C1.48079 19.75 0.25 18.5192 0.25 17V16.5Z" fill="#C7C9D9"/>
<path fill-rule="evenodd" clip-rule="evenodd" d="M14.25 10.75C13.5592 10.75 13 11.3092 13 12V17C13 17.6908 13.5592 18.25 14.25 18.25H17C17.6908 18.25 18.25 17.6908 18.25 17V12C18.25 11.3092 17.6908 10.75 17 10.75H14.25ZM11.5 12C11.5 10.4808 12.7308 9.25 14.25 9.25H17C18.5192 9.25 19.75 10.4808 19.75 12V17C19.75 18.5192 18.5192 19.75 17 19.75H14.25C12.7308 19.75 11.5 18.5192 11.5 17V12Z" fill="#C7C9D9"/>
<path fill-rule="evenodd" clip-rule="evenodd" d="M14.25 1.75C13.5592 1.75 13 2.30921 13 3V3.5C13 4.19079 13.5592 4.75 14.25 4.75H17C17.6908 4.75 18.25 4.19079 18.25 3.5V3C18.25 2.30921 17.6908 1.75 17 1.75H14.25ZM11.5 3C11.5 1.48079 12.7308 0.25 14.25 0.25H17C18.5192 0.25 19.75 1.48079 19.75 3V3.5C19.75 5.01921 18.5192 6.25 17 6.25H14.25C12.7308 6.25 11.5 5.01921 11.5 3.5V3Z" fill="#C7C9D9"/>
</svg>
