<svg width="24" height="24" viewBox="0 0 24 24" fill="none" xmlns="http://www.w3.org/2000/svg">
<path fill-rule="evenodd" clip-rule="evenodd" d="M3.78398 7.83212C3.58398 6.77212 3.89298 5.70312 4.63398 4.96212L5.28598 4.31012C6.06698 3.52912 7.33298 3.52912 8.11398 4.31012L9.28798 5.48412C9.87398 6.07012 9.87398 7.01912 9.20298 7.69012L8.38398 8.50812C8.16698 8.72512 8.09398 9.05412 8.21798 9.33512C8.80398 10.6641 9.68598 11.9741 10.856 13.1441C12.026 14.3141 13.336 15.1971 14.665 15.7841C14.946 15.9081 15.275 15.8351 15.492 15.6181L16.395 14.7141C16.98 14.1281 17.93 14.1281 18.516 14.7141L19.689 15.8871C20.47 16.6681 20.47 17.9341 19.689 18.7151L19.038 19.3661C18.297 20.1071 17.228 20.4161 16.168 20.2161C13.555 19.7221 10.694 18.2041 8.24498 15.7551C5.79598 13.3061 4.27798 10.4451 3.78398 7.83212ZM15.3337 13.654C15.3338 13.6539 15.3336 13.6541 15.3337 13.654C16.5052 12.4809 18.4055 12.4823 19.5766 13.6535L20.7496 14.8265C22.1164 16.1932 22.1164 18.409 20.7496 19.7758L20.0986 20.4268C18.9861 21.5393 17.4071 21.9764 15.8899 21.6901C12.9406 21.1325 9.81579 19.4472 7.18432 16.8158C4.55285 14.1843 2.86767 11.0601 2.31009 8.11076C2.02382 6.59354 2.46079 5.01399 3.57332 3.90146L4.22532 3.24946C5.5921 1.88267 7.80785 1.88267 9.17464 3.24945L10.3486 4.42345C11.5736 5.64838 11.4658 7.54858 10.2636 8.75078L9.81297 9.2009C10.3156 10.1976 11.0165 11.1833 11.9166 12.0835C12.8169 12.9837 13.8027 13.6854 14.7995 14.1889L15.3337 13.654Z" fill="#C7C9D9"/>
</svg>
