<svg width="24" height="24" viewBox="0 0 24 24" fill="none" xmlns="http://www.w3.org/2000/svg">
<path fill-rule="evenodd" clip-rule="evenodd" d="M7.81433 15.9182C7.81433 15.504 8.15012 15.1682 8.56433 15.1682H15.3003C15.7145 15.1682 16.0503 15.504 16.0503 15.9182C16.0503 16.3324 15.7145 16.6682 15.3003 16.6682H8.56433C8.15012 16.6682 7.81433 16.3324 7.81433 15.9182Z" fill="#C7C9D9"/>
<path fill-rule="evenodd" clip-rule="evenodd" d="M14.405 4.61101C12.8528 3.36925 10.6472 3.36925 9.09506 4.61101L9.09505 4.61101L5.09505 7.81101L4.62653 7.22536L5.09505 7.81102C4.08689 8.61754 3.50001 9.83861 3.5 11.1297V15.9297C3.5 18.2769 5.40279 20.1797 7.75 20.1797H15.75C18.0972 20.1797 20 18.2769 20 15.9297V11.1297C20 9.83862 19.4131 8.61755 18.405 7.811L14.405 4.61101L14.8717 4.02764L14.405 4.61101ZM8.15801 3.43971C10.258 1.75968 13.242 1.75968 15.3421 3.43971L14.8735 4.02536L15.3421 3.43971L19.3421 6.63971L19.3421 6.63972C20.706 7.73092 21.5 9.38295 21.5 11.1297V15.9297C21.5 19.1053 18.9256 21.6797 15.75 21.6797H7.75C4.57436 21.6797 2 19.1053 2 15.9297V11.1297C2.00001 9.38293 2.79403 7.73089 4.15801 6.63971L8.15801 3.43971C8.15801 3.43971 8.15801 3.43971 8.15801 3.43971Z" fill="#C7C9D9"/>
</svg>
